# xmcd
#
# Track frame offsets:
#	150
#	17117
#	33209
#	48329
#	67573
#	87792
#	101968
#	125315
#	142119
#	153220
#	171646
#	186097
#
# Disc length: 2685
#
# Revision: 1
# Processed by: cddbd v1.5.1PL0 Copyright (c) Steve Scherf et al.
# Submitted via: CDex 1.50
# Normalized: r0:TRMNUM
#
DISCID=990a7b0c
DTITLE=Blues de picolat - Dona del cami
DYEAR=2003
DGENRE=Blues
TTITLE0=La dona del cami
TTITLE1=Burges-Pages
TTITLE2=Viagra Blues
TTITLE3=Cansat
TTITLE4=Balada de la pell nua
TTITLE5=29 Camins
TTITLE6=Madame Panades
TTITLE7=La Gara
TTITLE8=Menja i calla!
TTITLE9=400.000 Volts Blues
TTITLE10=I Pay the cost to be the boss
TTITLE11=Canço Pelicana (Sardana blues)
EXTD=YEAR: 2003
EXTT0=
EXTT1=
EXTT2=
EXTT3=
EXTT4=
EXTT5=
EXTT6=
EXTT7=
EXTT8=
EXTT9=
EXTT10=
EXTT11=
PLAYORDER=
